<svg width="24" height="24" viewBox="0 0 24 24" fill="none" xmlns="http://www.w3.org/2000/svg">
<g id="Group">
<g id="Group_2">
<path id="Vector" d="M15.7001 11.3229L14.317 10.837C14.2049 10.4632 14.0553 10.0894 13.831 9.71554L14.4665 8.4072C14.5413 8.25767 14.5039 8.07077 14.3918 7.996L12.7844 6.38861C12.6722 6.27647 12.4853 6.23909 12.3732 6.31385L11.0648 6.94933C10.691 6.76242 10.3172 6.6129 9.9434 6.46338L9.45744 5.08027C9.42006 4.93075 9.27054 4.8186 9.12101 4.8186H6.84076C6.69123 4.8186 6.54171 4.93075 6.46695 5.08027L5.98099 6.46338C5.60718 6.57552 5.23337 6.72504 4.85956 6.94933L3.58859 6.27647C3.43907 6.20171 3.28954 6.23909 3.14002 6.35123L1.53263 7.95862C1.42049 8.07077 1.3831 8.25767 1.45787 8.36982L2.09335 9.67816C1.90644 10.052 1.75692 10.4258 1.64477 10.7996L0.261668 11.2855C0.112144 11.3603 0 11.5098 0 11.6594V13.9396C0 14.0891 0.112144 14.2387 0.261668 14.3134L1.64477 14.7994C1.75692 15.1732 1.90644 15.547 2.13073 15.9208L1.49525 17.2292C1.42049 17.3787 1.45787 17.5656 1.57001 17.6777L3.1774 19.2851C3.28955 19.3973 3.47645 19.4346 3.62598 19.3599L4.93432 18.7244C5.30813 18.9113 5.68194 19.0608 6.05575 19.2104L6.54171 20.5935C6.57909 20.743 6.72861 20.8551 6.87814 20.8551H9.15839C9.30792 20.8551 9.45744 20.743 9.49482 20.5935L9.98078 19.2104C10.3546 19.0982 10.7284 18.9487 11.1022 18.7244L12.4106 19.3599C12.5601 19.4346 12.7096 19.3973 12.8217 19.2851L14.4291 17.6777C14.5413 17.5656 14.5787 17.3787 14.5039 17.2292L13.831 15.8834C14.0179 15.5096 14.1675 15.1358 14.317 14.762L15.7001 14.276C15.8496 14.2387 15.9618 14.0891 15.9618 13.9022V11.622C15.9618 11.5098 15.8496 11.3603 15.7001 11.3229ZM7.96219 15.9956C6.20528 15.9956 4.78479 14.5751 4.78479 12.8182C4.78479 11.0613 6.20528 9.64078 7.96219 9.64078C9.71911 9.64078 11.1396 11.0613 11.1396 12.8182C11.1396 14.5377 9.71911 15.9956 7.96219 15.9956Z" fill="white"/>
</g>
<g id="Group_3">
<path id="Vector_2" d="M23.6662 3.8798L22.9185 3.61813C22.8438 3.43123 22.769 3.24432 22.6942 3.0948L23.0307 2.38456C23.1054 2.23503 23.0681 2.08551 22.9559 1.93598L22.0588 1.00145C21.9466 0.889308 21.7597 0.851927 21.6476 0.92669L20.9373 1.26312C20.7504 1.18836 20.6009 1.1136 20.414 1.03883L20.1523 0.291209C20.1149 0.141685 19.9654 0.029541 19.8159 0.029541H18.4702C18.3206 0.029541 18.1711 0.141685 18.0964 0.291209L17.8347 1.03883C17.6478 1.1136 17.4609 1.18836 17.3114 1.26312L16.6011 0.92669C16.4516 0.851927 16.2647 0.889308 16.1525 1.00145L15.218 1.93598C15.1059 2.04813 15.0685 2.23503 15.1432 2.38456L15.4797 3.0948C15.4049 3.2817 15.3301 3.43123 15.2554 3.61813L14.5078 3.8798C14.3582 3.91718 14.2461 4.06671 14.2461 4.21623V5.56196C14.2461 5.71148 14.3582 5.86101 14.5078 5.89839L15.2554 6.16006C15.3301 6.34696 15.4049 6.53387 15.4797 6.72077L15.1432 7.39364C15.0685 7.54316 15.1059 7.73007 15.218 7.84221L16.1525 8.77674C16.2647 8.88888 16.4516 8.92626 16.6011 8.8515L17.3114 8.51507C17.4983 8.58983 17.6852 8.6646 17.8347 8.73936L18.0964 9.48698C18.1337 9.63651 18.2833 9.74865 18.4702 9.74865H19.8159C19.9654 9.74865 20.1149 9.63651 20.1523 9.48698L20.414 8.73936C20.6009 8.6646 20.7878 8.58983 20.9373 8.51507L21.6476 8.8515C21.7971 8.92626 21.9466 8.88888 22.0961 8.77674L23.0307 7.84221C23.1428 7.73007 23.1802 7.54316 23.1054 7.39364L22.769 6.68339C22.8438 6.49649 22.9185 6.30958 22.9933 6.12268L23.7409 5.86101C23.8904 5.82363 24.0026 5.6741 24.0026 5.52458V4.17885C23.9278 4.06671 23.8157 3.91718 23.6662 3.8798ZM19.1056 6.75816C18.059 6.75816 17.2366 5.93577 17.2366 4.8891C17.2366 3.8798 18.059 3.02004 19.1056 3.02004C20.1149 3.02004 20.9747 3.84242 20.9747 4.8891C20.9747 5.93577 20.1149 6.75816 19.1056 6.75816Z" fill="white"/>
</g>
<g id="Group_4">
<path id="Vector_3" d="M23.6662 16.0665L22.6195 15.6927C22.5447 15.3936 22.4326 15.132 22.2831 14.8703L22.769 13.861C22.8438 13.7115 22.8064 13.562 22.6943 13.4498L21.4233 12.1789C21.3112 12.0667 21.1243 12.0293 20.9747 12.1041L20.0028 12.6274C19.7412 12.4779 19.4421 12.3658 19.1804 12.291L18.844 11.2443C18.8066 11.0948 18.6571 10.9827 18.4702 10.9827H16.6759C16.6011 10.9827 16.5638 10.9827 16.489 11.02C16.6011 11.207 16.6759 11.4312 16.6759 11.6555V13.9358C16.6759 14.4217 16.3768 14.8329 15.9283 14.9825L14.8816 15.3563C14.8068 15.5432 14.7321 15.7301 14.6573 15.8796L15.1433 16.8515C15.3676 17.3001 15.2928 17.786 14.919 18.1599L13.3116 19.7672C13.1247 19.9542 12.9004 20.0663 12.6761 20.1037L12.3397 20.7765C12.2649 20.9261 12.3023 21.0756 12.4144 21.1877L13.6854 22.4587C13.7975 22.5708 13.9844 22.6082 14.134 22.5335L15.1433 22.0475C15.4049 22.197 15.704 22.3092 15.9657 22.3839L16.3395 23.4306C16.3768 23.5801 16.5264 23.6923 16.7133 23.6923H18.5076C18.6571 23.6923 18.8066 23.5801 18.8814 23.4306L19.2178 22.3839C19.5169 22.2718 19.7785 22.1596 20.0402 22.0475L21.0495 22.5335C21.199 22.6082 21.3485 22.5708 21.4981 22.4587L22.769 21.1877C22.8812 21.0756 22.9186 20.8887 22.8438 20.7765L22.3578 19.7672C22.5074 19.5056 22.6195 19.2065 22.6943 18.9449L23.7409 18.571C23.8905 18.5337 24.0026 18.3841 24.0026 18.1972V16.4029C23.9278 16.2534 23.8157 16.1413 23.6662 16.0665ZM17.9469 19.842C16.5638 19.842 15.4423 18.7206 15.4423 17.3375C15.4423 15.9544 16.5638 14.8329 17.9469 14.8329C19.33 14.8329 20.4514 15.9544 20.4514 17.3375C20.4514 18.7206 19.33 19.842 17.9469 19.842Z" fill="white"/>
</g>
</g>
</svg>
