<svg width="24" height="24" viewBox="0 0 24 24" fill="none" xmlns="http://www.w3.org/2000/svg">
<path id="Vector" fill-rule="evenodd" clip-rule="evenodd" d="M12 0.00109863C14.3734 0.00109863 16.6935 0.704886 18.6668 2.02346C20.6402 3.34204 22.1783 5.21618 23.0865 7.4089C23.9948 9.60161 24.2324 12.0144 23.7694 14.3422C23.3064 16.67 22.1635 18.8081 20.4853 20.4864C18.807 22.1646 16.6689 23.3075 14.3411 23.7705C12.0133 24.2335 9.60051 23.9959 7.4078 23.0876C5.21509 22.1794 3.34094 20.6413 2.02236 18.6679C0.703788 16.6945 0 14.3745 0 12.0011C0 8.8185 1.26428 5.76625 3.51472 3.51582C5.76515 1.26538 8.8174 0.00109863 12 0.00109863ZM17.0248 18.1526V15.0144L14.308 13.4462V16.5848L15.7773 17.4331L15.7912 17.4406L17.0248 18.1526ZM20.24 13.4462L17.5237 15.0144V18.1526L18.7573 17.4411L20.24 16.5851V13.4462ZM17.2741 14.5835L19.992 13.0144L18.7573 12.3016L17.2739 11.4451L15.804 12.2944C15.7997 12.2973 15.7955 12.2999 15.7912 12.3024L14.5565 13.0144L17.2741 14.5835ZM6.47626 18.1531V15.0144L3.76 13.4454V16.5848L6.47626 18.1531ZM9.692 13.4462L6.97546 15.0144V18.1526L8.2088 17.4406L9.69173 16.5846L9.692 13.4462ZM6.72533 14.584L9.44346 13.0144L8.2088 12.3016L6.7256 11.4451L5.25547 12.2944C5.2514 12.2974 5.24712 12.3001 5.24267 12.3024L4.00747 13.0144L6.72533 14.584ZM11.7504 9.86936V6.73043L9.03386 5.16216V8.30136L10.5032 9.14963L10.5171 9.1571L11.7504 9.86936ZM14.9661 5.1627L12.2496 6.73096V9.86936L13.4829 9.1571L14.9659 8.30083L14.9661 5.1627ZM12 6.30056L14.7184 4.73123L13.4835 4.01816L12 3.16136L10.5296 4.01043L10.5171 4.01816L9.28186 4.7315L12 6.30056ZM5.83387 9.0739L11.7192 12.4726V19.2702C11.4653 19.3313 11.2427 19.4834 11.0934 19.6977C10.9442 19.912 10.8788 20.1736 10.9096 20.4329C10.9403 20.6922 11.0652 20.9312 11.2604 21.1047C11.4556 21.2781 11.7077 21.3739 11.9688 21.3739C12.2299 21.3739 12.482 21.2781 12.6772 21.1047C12.8724 20.9312 12.9973 20.6922 13.028 20.4329C13.0588 20.1736 12.9934 19.912 12.8442 19.6977C12.6949 19.4834 12.4723 19.3313 12.2184 19.2702V12.4726L18.104 9.07443C18.2686 9.24852 18.4872 9.36199 18.7243 9.39649C18.9614 9.43099 19.2032 9.38451 19.4107 9.26456C19.6535 9.12513 19.8316 8.89567 19.9065 8.62585C19.9814 8.35603 19.9469 8.06758 19.8107 7.82296C19.808 7.81736 19.8051 7.81203 19.8021 7.8067C19.6621 7.56439 19.4325 7.38681 19.1628 7.31223C18.8931 7.23765 18.6048 7.27206 18.3603 7.40803L18.3443 7.41656C18.1368 7.53637 17.9757 7.72253 17.8869 7.94506C17.7982 8.16759 17.7869 8.41352 17.8549 8.64323L11.9688 12.043L6.0824 8.64456C6.15044 8.41485 6.13917 8.16892 6.0504 7.94639C5.96163 7.72387 5.80054 7.5377 5.59307 7.4179C5.35217 7.27848 5.06627 7.23893 4.79657 7.30772C4.52688 7.3765 4.29484 7.54814 4.15013 7.7859C4.14067 7.79863 4.13254 7.8123 4.12587 7.8267C3.99287 8.068 3.95841 8.35139 4.02969 8.61753C4.10098 8.88367 4.27247 9.11191 4.50827 9.25443C4.52119 9.26344 4.53494 9.27121 4.54933 9.27763C4.75575 9.3903 4.99366 9.43147 5.22594 9.39472C5.45822 9.35796 5.67179 9.24534 5.83333 9.07443L5.83387 9.0739Z" fill="white"/>
</svg>
