<svg width="24" height="28" viewBox="0 0 24 28" fill="none" xmlns="http://www.w3.org/2000/svg">
<g id="Group 4">
<path id="Vector" d="M10.1641 1.33146L12.0006 2.38835L13.8372 1.33146L12.0006 0.267639L10.1641 1.33146Z" fill="white"/>
<path id="Vector_2" d="M9.95703 3.80632L11.7901 4.86667V2.7425L9.95703 1.68561V3.80632Z" fill="white"/>
<path id="Vector_3" d="M14.0401 3.80632V1.68561L12.207 2.7425V4.86667L14.0401 3.80632Z" fill="white"/>
<path id="Vector_4" d="M0 9.32024L1.82963 8.26335V6.14264L0 7.19953V9.32024Z" fill="white"/>
<path id="Vector_5" d="M4.07831 7.19953L2.23828 6.14264V8.26335L4.07831 9.32024V7.19953Z" fill="white"/>
<path id="Vector_6" d="M2.03578 8.6153L0.199219 9.67218L2.03578 10.736L3.87234 9.67218L2.03578 8.6153Z" fill="white"/>
<path id="Vector_7" d="M3.87234 18.5893L2.03578 17.5255L0.199219 18.5893L2.03578 19.6462L3.87234 18.5893Z" fill="white"/>
<path id="Vector_8" d="M4.07831 18.9395L2.23828 19.9999V22.1206L4.07831 21.0568V18.9395Z" fill="white"/>
<path id="Vector_9" d="M0 21.0568L1.82963 22.1206V19.9999L0 18.9395V21.0568Z" fill="white"/>
<path id="Vector_10" d="M14.0401 24.4534L12.207 23.3965V25.5138L14.0401 26.5741V24.4534Z" fill="white"/>
<path id="Vector_11" d="M9.95703 24.4534V26.5741L11.7901 25.5138V23.3965L9.95703 24.4534Z" fill="white"/>
<path id="Vector_12" d="M13.8372 26.9291L12.0006 25.8653L10.1641 26.9291L12.0006 27.986L13.8372 26.9291Z" fill="white"/>
<path id="Vector_13" d="M23.7981 18.5893L21.9616 17.5255L20.125 18.5893L21.9616 19.6462L23.7981 18.5893Z" fill="white"/>
<path id="Vector_14" d="M24.0015 18.9395L22.1719 19.9999V22.1206L24.0015 21.0568V18.9395Z" fill="white"/>
<path id="Vector_15" d="M19.9219 21.0568L21.7619 22.1206V19.9999L19.9219 18.9395V21.0568Z" fill="white"/>
<path id="Vector_16" d="M24.0015 7.19953L22.1719 6.14264V8.26335L24.0015 9.32024V7.19953Z" fill="white"/>
<path id="Vector_17" d="M19.9219 9.32024L21.7619 8.26335V6.14264L19.9219 7.19953V9.32024Z" fill="white"/>
<path id="Vector_18" d="M21.9616 8.6153L20.125 9.67218L21.9616 10.736L23.7981 9.67218L21.9616 8.6153Z" fill="white"/>
<path id="Vector_19" d="M15.9002 19.5489L17.4111 18.0346L16.6903 16.6381C16.8532 16.3367 16.9779 16.0213 17.0888 15.6852L18.5892 15.207V13.069L17.0888 12.5838C16.9848 12.2512 16.8532 11.9358 16.6903 11.6344L17.4111 10.2379L15.9002 8.7236L14.5037 9.44782C14.1988 9.27803 13.8835 9.15328 13.5508 9.04933L13.0726 7.54889H10.9346L10.4564 9.04933C10.1168 9.15328 9.79799 9.27803 9.50345 9.44782L8.10697 8.7236L6.59267 10.2379L7.3169 11.6344C7.15404 11.9358 7.02236 12.2512 6.91841 12.5838L5.41797 13.069V15.207L6.91841 15.6852C7.02236 16.0248 7.15404 16.3401 7.3169 16.6381L6.59267 18.0346L8.10697 19.5489L9.50692 18.8247C9.80839 18.9841 10.1237 19.1192 10.4564 19.2232L10.9346 20.7167H13.0726L13.5508 19.2232C13.8835 19.1192 14.1988 18.9841 14.5003 18.8247L15.9002 19.5489ZM12.0019 17.6015C10.0891 17.6015 8.53319 16.0491 8.53319 14.1293C8.53319 12.2165 10.0856 10.6606 12.0019 10.6606C13.9181 10.6606 15.4705 12.2165 15.4705 14.1293C15.4705 16.0491 13.9147 17.6015 12.0019 17.6015Z" fill="white"/>
<path id="Vector_20" d="M2.30576 11.1817H1.76172V17.0933H2.30576V11.1817Z" fill="white"/>
<path id="Vector_21" d="M9.44252 3.78211L4.32422 6.7403L4.59646 7.21132L9.71476 4.25314L9.44252 3.78211Z" fill="white"/>
<path id="Vector_22" d="M14.5613 3.7888L14.2891 4.25983L19.4074 7.21802L19.6796 6.74699L14.5613 3.7888Z" fill="white"/>
<path id="Vector_23" d="M22.2315 11.1817H21.6875V17.0933H22.2315V11.1817Z" fill="white"/>
<path id="Vector_24" d="M19.3996 21.0444L14.2812 24.002L14.5534 24.473L19.6717 21.5154L19.3996 21.0444Z" fill="white"/>
<path id="Vector_25" d="M4.59646 21.0466L4.32422 21.5176L9.44253 24.4758L9.71476 24.0048L4.59646 21.0466Z" fill="white"/>
</g>
</svg>
