<svg width="24" height="31" viewBox="0 0 24 31" fill="none" xmlns="http://www.w3.org/2000/svg">
<g id="Group 15">
<path id="Vector" d="M0.00526182 10.4195C0.00526182 11.5743 0.00526182 12.7261 0.00526182 13.881C-0.0107056 17.8025 1.27875 21.612 3.66032 24.6795C5.61389 27.3297 8.33906 29.2733 11.4412 30.2287C11.8045 30.3473 12.1948 30.3473 12.5582 30.2287C15.9238 29.1909 18.5759 27.1362 20.6519 24.2686C22.2781 22.0351 23.3508 19.4297 23.7777 16.6766C23.9096 15.8122 23.978 14.9389 23.9824 14.064C24.0087 11.3943 23.9824 8.72169 23.997 6.04905C24.0087 5.95132 23.9856 5.85253 23.9318 5.77094C23.8781 5.68935 23.7974 5.63045 23.7046 5.60512C19.8917 3.88135 16.0787 2.14159 12.2658 0.385829C12.1797 0.341033 12.0845 0.317688 11.988 0.317688C11.8915 0.317688 11.7963 0.341033 11.7102 0.385829C7.907 2.12959 4.10282 3.86635 0.297666 5.59612C0.199729 5.63074 0.116779 5.69959 0.0633249 5.79061C0.00987121 5.88164 -0.0106817 5.98905 0.00526182 6.09405C0.00526182 7.53685 0.00526182 8.97965 0.00526182 10.4195ZM2.05209 7.65683C2.03899 7.56841 2.05713 7.47809 2.10325 7.40219C2.14936 7.32628 2.22041 7.26978 2.30356 7.24289C5.44983 5.81109 8.60195 4.37128 11.7599 2.92348C11.8311 2.88658 11.9097 2.86735 11.9895 2.86735C12.0692 2.86735 12.1478 2.88658 12.219 2.92348C15.3828 4.37128 18.5515 5.81509 21.7251 7.25489C21.801 7.27718 21.8667 7.32666 21.9101 7.39435C21.9536 7.46203 21.9719 7.54345 21.9619 7.62384C21.9619 9.84054 21.9619 12.0602 21.9619 14.2769C21.9574 15.0032 21.8997 15.7282 21.7894 16.4456C21.4339 18.7301 20.5428 20.8917 19.1928 22.7448C17.5457 25.1115 15.1808 26.8519 12.4675 27.6941C12.166 27.7925 11.8421 27.7925 11.5406 27.6941C8.95931 26.9049 6.69052 25.292 5.06386 23.0897C3.08491 20.5414 2.01405 17.376 2.0287 14.118C2.0287 13.1611 2.0287 12.2012 2.0287 11.2443C2.0287 10.0535 2.03455 8.85667 2.02578 7.65983L2.05209 7.65683Z" fill="white"/>
<path id="Vector_2" d="M3.92036 8.60853C6.55004 7.4087 9.18168 6.20886 11.8153 5.00903C11.8727 4.98407 11.9342 4.97082 11.9966 4.97003V15.3186H3.75369C3.72834 14.9927 3.7147 14.6627 3.71275 14.3288C3.71275 13.5339 3.71275 12.736 3.71275 11.9291C3.71275 10.9332 3.71275 9.93735 3.71275 8.92949C3.70512 8.8595 3.72174 8.78899 3.7597 8.73031C3.79765 8.67163 3.85453 8.62852 3.92036 8.60853Z" fill="white"/>
<path id="Vector_3" d="M20.2321 15.3177H11.9922V25.6663C12.1241 25.6649 12.2552 25.6437 12.3811 25.6033C14.6343 24.9027 16.5981 23.4567 17.966 21.4908C19.0879 19.9511 19.8284 18.1548 20.124 16.2566C20.1795 15.9446 20.2087 15.6176 20.2321 15.3177Z" fill="white"/>
</g>
</svg>
