<svg width="16" height="16" viewBox="0 0 16 16" fill="none" xmlns="http://www.w3.org/2000/svg">
<g id="task_alt_FILL0_wght400_GRAD0_opsz24 1">
<path id="Vector" d="M8.00004 14.6667C7.07782 14.6667 6.21115 14.4917 5.40004 14.1417C4.58893 13.7917 3.88337 13.3167 3.28337 12.7167C2.68337 12.1167 2.20837 11.4112 1.85837 10.6C1.50837 9.78893 1.33337 8.92226 1.33337 8.00004C1.33337 7.07782 1.50837 6.21115 1.85837 5.40004C2.20837 4.58893 2.68337 3.88337 3.28337 3.28337C3.88337 2.68337 4.58893 2.20837 5.40004 1.85837C6.21115 1.50837 7.07782 1.33337 8.00004 1.33337C8.72226 1.33337 9.4056 1.43893 10.05 1.65004C10.6945 1.86115 11.2889 2.1556 11.8334 2.53337L10.8667 3.51671C10.4445 3.25004 9.99448 3.04171 9.51671 2.89171C9.03893 2.74171 8.53337 2.66671 8.00004 2.66671C6.52226 2.66671 5.26393 3.18615 4.22504 4.22504C3.18615 5.26393 2.66671 6.52226 2.66671 8.00004C2.66671 9.47782 3.18615 10.7362 4.22504 11.775C5.26393 12.8139 6.52226 13.3334 8.00004 13.3334C9.47782 13.3334 10.7362 12.8139 11.775 11.775C12.8139 10.7362 13.3334 9.47782 13.3334 8.00004C13.3334 7.80004 13.3223 7.60004 13.3 7.40004C13.2778 7.20004 13.2445 7.0056 13.2 6.81671L14.2834 5.73337C14.4056 6.08893 14.5 6.4556 14.5667 6.83337C14.6334 7.21115 14.6667 7.60004 14.6667 8.00004C14.6667 8.92226 14.4917 9.78893 14.1417 10.6C13.7917 11.4112 13.3167 12.1167 12.7167 12.7167C12.1167 13.3167 11.4112 13.7917 10.6 14.1417C9.78893 14.4917 8.92226 14.6667 8.00004 14.6667ZM7.06671 11.0667L4.23337 8.23337L5.16671 7.30004L7.06671 9.20004L13.7334 2.51671L14.6667 3.45004L7.06671 11.0667Z" fill="white"/>
</g>
</svg>
