<svg width="33" height="33" viewBox="0 0 33 33" fill="none" xmlns="http://www.w3.org/2000/svg">
<g id="strategy_FILL0_wght200_GRAD0_opsz24 1">
<path id="Vector" d="M8.46021 14.7082L4.46021 12.4262V7.86207L8.46021 5.58004L12.4602 7.86207V12.4262L8.46021 14.7082ZM8.46021 13.18L11.1269 11.6621V8.6262L8.46021 7.10824L5.79354 8.6262V11.6621L8.46021 13.18ZM22.1525 14.8185V13.2826L25.7935 15.4005V23.9647L18.4602 28.2467L11.1269 23.9647V15.4005L14.7679 13.2826V14.8185L12.4602 16.1647V23.2033L18.4602 26.6852L24.4602 23.2033V16.1647L22.1525 14.8185ZM17.7935 18.9134V4.2467H28.4602L26.2551 7.58004L28.4602 10.9134H19.1269V18.9134H17.7935Z" fill="white"/>
</g>
</svg>
