<svg width="32" height="32" viewBox="0 0 32 32" fill="none" xmlns="http://www.w3.org/2000/svg">
<g id="mail_FILL0_wght200_GRAD0_opsz24 1">
<path id="Vector" d="M6.15383 25.3334C5.54017 25.3334 5.02778 25.1279 4.61667 24.7167C4.20556 24.3056 4 23.7932 4 23.1796V8.82058C4 8.20691 4.20556 7.69453 4.61667 7.28341C5.02778 6.8723 5.54017 6.66675 6.15383 6.66675H25.8462C26.4598 6.66675 26.9722 6.8723 27.3833 7.28341C27.7944 7.69453 28 8.20691 28 8.82058V23.1796C28 23.7932 27.7944 24.3056 27.3833 24.7167C26.9722 25.1279 26.4598 25.3334 25.8462 25.3334H6.15383ZM16 16.1539L5.33333 9.17958V23.1796C5.33333 23.4189 5.41026 23.6155 5.5641 23.7693C5.71794 23.9232 5.91452 24.0001 6.15383 24.0001H25.8462C26.0855 24.0001 26.2821 23.9232 26.4359 23.7693C26.5897 23.6155 26.6667 23.4189 26.6667 23.1796V9.17958L16 16.1539ZM16 14.6667L26.2564 8.00008H5.7436L16 14.6667ZM5.33333 9.17958V8.00008V23.1796C5.33333 23.4189 5.41026 23.6155 5.5641 23.7693C5.71794 23.9232 5.91452 24.0001 6.15383 24.0001H5.33333V9.17958Z" fill="white"/>
</g>
</svg>
