<svg width="16" height="17" viewBox="0 0 16 17" fill="none" xmlns="http://www.w3.org/2000/svg">
<path d="M8 13.3067L7.49487 12.8503C6.40683 11.8563 5.50683 11.0054 4.79487 10.2977C4.0829 9.59002 3.52093 8.96587 3.10897 8.42527C2.697 7.88467 2.40918 7.39557 2.24552 6.95797C2.08184 6.52036 2 6.08018 2 5.63745C2 4.78958 2.28803 4.07762 2.8641 3.50155C3.44017 2.92548 4.15213 2.63745 5 2.63745C5.58632 2.63745 6.13632 2.78745 6.65 3.08745C7.16368 3.38745 7.61368 3.82377 8 4.39642C8.38632 3.82377 8.83632 3.38745 9.35 3.08745C9.86368 2.78745 10.4137 2.63745 11 2.63745C11.8479 2.63745 12.5598 2.92548 13.1359 3.50155C13.712 4.07762 14 4.78958 14 5.63745C14 6.08018 13.9182 6.52036 13.7545 6.95797C13.5908 7.39557 13.303 7.88467 12.891 8.42527C12.4791 8.96587 11.9192 9.59002 11.2116 10.2977C10.5038 11.0054 9.60171 11.8563 8.50513 12.8503L8 13.3067ZM8 12.4041C9.06667 11.44 9.94444 10.6142 10.6333 9.92655C11.3222 9.23895 11.8667 8.64237 12.2667 8.13682C12.6667 7.63126 12.9444 7.1834 13.1 6.79322C13.2556 6.40305 13.3333 6.0178 13.3333 5.63745C13.3333 4.97078 13.1111 4.41523 12.6667 3.97078C12.2222 3.52634 11.6667 3.30412 11 3.30412C10.4692 3.30412 9.97949 3.45561 9.53077 3.7586C9.08206 4.06159 8.68035 4.51779 8.32565 5.1272H7.67435C7.31111 4.50925 6.90726 4.05091 6.46282 3.7522C6.01837 3.45348 5.53077 3.30412 5 3.30412C4.34188 3.30412 3.78846 3.52634 3.33975 3.97078C2.89103 4.41523 2.66667 4.97078 2.66667 5.63745C2.66667 6.0178 2.74444 6.40305 2.9 6.79322C3.05556 7.1834 3.33333 7.63126 3.73333 8.13682C4.13333 8.64237 4.67778 9.23682 5.36667 9.92015C6.05556 10.6035 6.93333 11.4315 8 12.4041Z" fill="white" fill-opacity="0.5"/>
</svg>
