<svg width="24" height="25" viewBox="0 0 24 25" fill="none" xmlns="http://www.w3.org/2000/svg">
<g id="mail_FILL1_wght400_GRAD0_opsz24 1">
<path id="Vector" d="M4 20.5322C3.45 20.5322 2.97917 20.3364 2.5875 19.9447C2.19583 19.5531 2 19.0822 2 18.5322V6.53223C2 5.98223 2.19583 5.51139 2.5875 5.11973C2.97917 4.72806 3.45 4.53223 4 4.53223H20C20.55 4.53223 21.0208 4.72806 21.4125 5.11973C21.8042 5.51139 22 5.98223 22 6.53223V18.5322C22 19.0822 21.8042 19.5531 21.4125 19.9447C21.0208 20.3364 20.55 20.5322 20 20.5322H4ZM12 13.5322L20 8.53223V6.53223L12 11.5322L4 6.53223V8.53223L12 13.5322Z" fill="white"/>
</g>
</svg>
