<svg width="32" height="32" viewBox="0 0 32 32" fill="none" xmlns="http://www.w3.org/2000/svg">
<g id="pin_drop_FILL0_wght200_GRAD0_opsz24 1">
<path id="Vector" d="M16.0007 22.8127C18.4229 20.8982 20.2507 19.0632 21.484 17.3076C22.7173 15.5521 23.334 13.8495 23.334 12.1999C23.334 10.8349 23.0848 9.67104 22.5866 8.70822C22.0883 7.74542 21.4673 6.96615 20.7237 6.37042C19.9801 5.77471 19.1832 5.34181 18.3329 5.07172C17.4826 4.80163 16.7052 4.66659 16.0007 4.66659C15.2961 4.66659 14.5187 4.80163 13.6684 5.07172C12.8181 5.34181 12.0212 5.77471 11.2776 6.37042C10.534 6.96615 9.91304 7.74542 9.41475 8.70822C8.91646 9.67104 8.66732 10.8349 8.66732 12.1999C8.66732 13.8495 9.28398 15.5521 10.5173 17.3076C11.7507 19.0632 13.5784 20.8982 16.0007 22.8127ZM16.0007 24.5128C13.0895 22.3213 10.9173 20.205 9.48398 18.164C8.05065 16.123 7.33398 14.1348 7.33398 12.1996C7.33398 10.7378 7.59595 9.45615 8.11988 8.35469C8.64382 7.25322 9.31887 6.32813 10.1451 5.57942C10.9713 4.83069 11.9007 4.26914 12.9335 3.89479C13.9662 3.52043 14.9886 3.33325 16.0007 3.33325C17.0127 3.33325 18.0351 3.52043 19.0679 3.89479C20.1006 4.26914 21.0301 4.83069 21.8563 5.57942C22.6824 6.32813 23.3575 7.25322 23.8814 8.35469C24.4054 9.45615 24.6673 10.7378 24.6673 12.1996C24.6673 14.1348 23.9507 16.123 22.5173 18.164C21.084 20.205 18.9118 22.3213 16.0007 24.5128ZM16.0007 13.9999C16.5631 13.9999 17.037 13.8072 17.4225 13.4217C17.8079 13.0363 18.0007 12.5623 18.0007 11.9999C18.0007 11.4375 17.8079 10.9636 17.4225 10.5781C17.037 10.1927 16.5631 9.99992 16.0007 9.99992C15.4383 9.99992 14.9643 10.1927 14.5789 10.5781C14.1934 10.9636 14.0007 11.4375 14.0007 11.9999C14.0007 12.5623 14.1934 13.0363 14.5789 13.4217C14.9643 13.8072 15.4383 13.9999 16.0007 13.9999ZM7.33398 28.6666V27.3333H24.6673V28.6666H7.33398Z" fill="white"/>
</g>
</svg>
