<svg width="24" height="25" viewBox="0 0 24 25" fill="none" xmlns="http://www.w3.org/2000/svg">
<g id="person_FILL1_wght400_GRAD0_opsz24 (1) 1">
<path id="Vector" d="M12 12.5322C10.9 12.5322 9.95833 12.1406 9.175 11.3572C8.39167 10.5739 8 9.63223 8 8.53223C8 7.43223 8.39167 6.49056 9.175 5.70723C9.95833 4.92389 10.9 4.53223 12 4.53223C13.1 4.53223 14.0417 4.92389 14.825 5.70723C15.6083 6.49056 16 7.43223 16 8.53223C16 9.63223 15.6083 10.5739 14.825 11.3572C14.0417 12.1406 13.1 12.5322 12 12.5322ZM4 20.5322V17.7322C4 17.1656 4.14583 16.6447 4.4375 16.1697C4.72917 15.6947 5.11667 15.3322 5.6 15.0822C6.63333 14.5656 7.68333 14.1781 8.75 13.9197C9.81667 13.6614 10.9 13.5322 12 13.5322C13.1 13.5322 14.1833 13.6614 15.25 13.9197C16.3167 14.1781 17.3667 14.5656 18.4 15.0822C18.8833 15.3322 19.2708 15.6947 19.5625 16.1697C19.8542 16.6447 20 17.1656 20 17.7322V20.5322H4Z" fill="white"/>
</g>
</svg>
