<?xml version="1.0" encoding="UTF-8"?>
<svg id="Layer_2" data-name="Layer 2" xmlns="http://www.w3.org/2000/svg" viewBox="0 0 2911.84 659.45">
  <defs>
    <style>
      .cls-1 {
        fill: #fff;
        stroke-width: 0px;
      }
    </style>
  </defs>
  <g id="Layer_1-2" data-name="Layer 1">
    <path class="cls-1" d="M25.46.36c7.69-1.63,13.92,3.94,20.43,8.1,7.12,4.55,13.75,9.86,20.53,14.92,3.26,2.44,6.28,5.2,9.58,7.59,10.4,7.52,21.45,14.28,31.13,22.63,6.28,5.42,13.89,8.88,19.57,15.17,3.72,4.11,9.2,6.61,13.77,9.99,11.72,8.68,23.31,17.54,35.08,26.15,6.71,4.91,13.76,9.36,20.5,14.25,6.42,4.66,12.57,9.7,18.96,14.4,9.95,7.33,20.09,14.41,29.99,21.81,6.6,4.93,12.85,10.34,19.4,15.34,4.69,3.59,9.56,6.95,14.46,10.25,8.9,6.01,17.49,12.38,25.81,19.19,5.17,4.24,11.23,7.36,16.7,11.25,4.94,3.51,9.57,7.47,14.44,11.08,6.97,5.18,14.09,10.15,21.03,15.36,2.58,1.94,4.69,4.52,7.29,6.42,5.76,4.2,11.97,7.82,17.49,12.29,7.06,5.72,15.11,10.04,21.71,16.44,4.2,4.07,9.63,6.85,14.39,10.36,8.63,6.37,17.15,12.9,25.75,19.3,4.39,3.27,8.86,6.43,13.31,9.61,7.11,5.08,14.25,10.11,21.34,15.22,6.46,4.66,12.94,9.3,19.27,14.14,7.2,5.51,14.11,11.4,21.38,16.83,6.36,4.76,13.06,9.07,19.56,13.65,2.43,1.72,4.78,3.58,7.07,5.48,2.49,2.07,4.75,2.03,7.35.06,6.58-4.99,13.29-9.81,19.92-14.72,7.34-5.44,14.7-10.84,21.96-16.39,9.8-7.49,18.94-16.02,29.4-22.41,10.66-6.52,19.75-15.02,30.36-21.58,9.61-5.94,18.14-13.61,27.2-20.46,8.07-6.1,16.19-12.13,24.32-18.15,6.17-4.57,12.37-9.09,18.58-13.6,6.54-4.75,13.18-9.36,19.64-14.21,6.46-4.85,12.7-10,19.14-14.89,11.46-8.71,22.73-17.68,34.56-25.86,10.35-7.16,20.01-15.25,30.43-22.2,6.42-4.28,12.05-9.52,18.67-13.56,8.8-5.37,17.53-11.19,25.16-18.06,8.8-7.91,18.79-14.12,27.83-21.66,8.72-7.27,18.33-13.47,27.6-20.07,6.62-4.72,13.97-8.64,19.79-14.18,6.99-6.66,15.6-10.9,22.73-17.24,3.77-3.35,8.24-5.91,12.29-8.97,7.9-5.97,15.66-12.11,23.59-18.04,5.04-3.76,10.34-7.17,15.4-10.89,2.43-1.78,4.48-4.07,6.88-5.89,3.24-2.45,6.68-4.64,10-6.99,5.49-3.89,11.07-7.66,16.4-11.76,7.49-5.76,16.26-7.02,24.74-4.94,6.94,1.71,13.41,5.99,15.25,14.19.72,3.21,2.25,6.47,2.02,9.6-.38,4.92-1.6,9.85-3.09,14.58-2.09,6.65-5.13,12.95-6.71,19.84-1.19,5.18-3.68,10.04-5.28,15.15-1.41,4.52-2.33,9.19-3.57,13.76-.42,1.56-1.1,3.05-1.79,4.52-.34.72-1.2,1.24-1.41,1.96-1.42,4.96-2.6,9.99-4.1,14.93-1.61,5.31-3.51,10.53-5.2,15.82-1.06,3.32-1.94,6.7-2.94,10.04-1.58,5.27-3.14,10.54-4.82,15.78-1.57,4.9-3.27,9.75-4.93,14.63-.33.98-.87,1.92-1.02,2.93-1.01,6.81-3.57,13.08-6.39,19.31-1.35,2.98-2.03,6.27-2.93,9.44-1.51,5.35-2.53,10.9-4.56,16.05-1.93,4.91-1.56,10.67-5.48,14.82-.27.28-.39.73-.49,1.12-1.36,5.19-2.6,10.42-4.09,15.58-1.44,4.96-3.12,9.85-4.72,14.76-1.15,3.51-2.43,6.98-3.5,10.51-1.65,5.46-3.14,10.97-4.76,16.43-1.23,4.15-2.58,8.28-3.87,12.41-1.95,6.27-3.46,12.73-5.98,18.76-1.92,4.59-3.47,9.2-4.72,14-1.5,5.76-2.86,11.66-5.33,17.02-2.32,5.03-1.71,10.88-5.5,15.56-2.05,2.53-2.29,6.55-3.23,9.93-1.39,4.98-2.61,10-4.02,14.97-1.4,4.98-3.03,9.89-4.4,14.87-1.68,6.1-4.88,11.61-6.07,17.96-.93,4.96-3.5,9.6-5.11,14.46-1.5,4.52-2.61,9.17-4.06,13.71-1.87,5.83-3.96,11.58-5.85,17.4-1.47,4.51-2.77,9.08-4.16,13.62-1.87,6.08-3.79,12.14-5.64,18.23-2.57,8.44-5.04,16.91-7.65,25.34-1.59,5.12-3.41,10.17-5.04,15.27-1.74,5.44-3.3,10.95-5.1,16.37-1.61,4.87-3.76,9.59-5.09,14.53-1.24,4.6-2.2,9.2-4.11,13.65-2.5,5.81-4.34,11.93-6.22,17.99-1.58,5.12-2.73,10.37-4.19,15.53-3.07,10.85-5.72,21.99-13.38,30.74-2.74,3.13-6.63,5.16-10.4,7.32-5.17,2.97-10.23,2.85-15.56,2.98-7.87.19-14.32-3.69-20.37-7.86-10.85-7.47-21.32-15.47-31.93-23.28-8.14-5.99-16.28-11.99-24.36-18.06-5.52-4.16-10.82-8.62-16.44-12.65-6.91-4.96-14.14-9.45-21.03-14.43-6.24-4.51-12.12-9.49-18.3-14.09-8.28-6.15-16.71-12.1-25.04-18.19-7.37-5.39-14.71-10.83-22.01-16.32-12.18-9.16-24.15-18.6-36.98-26.9-6.28-4.06-12.1-8.89-17.88-13.68-7.75-6.43-16.28-11.79-23.84-18.55-6.01-5.37-13.6-8.93-20.17-13.73-6.84-4.99-13.18-10.68-19.97-15.74-6.03-4.49-12.35-8.62-18.63-12.76-2.85-1.88-5.9-1.71-8.78.21-12.04,8.05-23.49,16.96-35.09,25.56-10.21,7.57-20.69,14.86-30.69,22.77-12.07,9.55-24.31,18.92-36.89,27.79-9.3,6.55-18.03,13.86-27.36,20.29-13.16,9.07-25.8,18.82-38.63,28.3-7.92,5.85-16.15,11.33-23.46,18.11-5.61,5.21-12.79,8.69-19.02,13.28-7.14,5.26-13.95,10.98-21.01,16.35-4.38,3.33-8.98,6.37-13.47,9.55-3.96,2.8-7.93,5.59-11.86,8.44-10.22,7.39-20.79,14.36-30.46,22.41-4.94,4.11-10.38,6.89-15.7,10.15-4.45,2.73-9.06,2.77-13.83,3.08-9.3.59-16.56-3.66-23.25-9.51-4.69-4.09-6.3-9.91-8.71-15.21-2.09-4.59-3.19-9.64-4.7-14.49-1.89-6.09-3.7-12.2-5.65-18.27-1.64-5.1-3.47-10.13-5.14-15.21-1.7-5.21-3.24-10.48-4.96-15.69-1.61-4.87-3.41-9.67-5.03-14.53-1.17-3.5-2.18-7.06-3.25-10.59-1.59-5.27-3.08-10.58-4.78-15.81-1.59-4.86-3.53-9.62-5.08-14.49-1.63-5.12-2.99-10.32-4.44-15.49-.22-.8-.07-1.76-.45-2.46-5.06-9.57-6.93-20.18-9.98-30.4-2.06-6.89-3.32-14.2-6.58-20.48-2.13-4.1-2.82-8.49-4.72-12.55-2.07-4.44-3.29-9.32-4.49-14.11-1.55-6.19-3.06-12.28-5.93-18.12-2.24-4.56-2.99-9.85-4.39-14.81-1.06-3.75-1.98-7.56-3.21-11.25-1.56-4.67-3.5-9.21-5.03-13.89-1.78-5.42-3.27-10.94-4.92-16.41-1.25-4.15-2.56-8.28-3.83-12.42-1.94-6.29-3.86-12.58-5.83-18.86-.37-1.16-.93-2.27-1.44-3.38-.67-1.46-1.53-2.85-2.05-4.36-1.93-5.63-3.83-11.27-5.57-16.96-.61-1.98-.48-4.19-1.11-6.16-2.36-7.39-4.86-14.73-7.36-22.07-1.66-4.88-3.53-9.7-5.11-14.61-2.01-6.29-3.69-12.68-5.75-18.95-2.37-7.19-5.17-14.24-7.48-21.44-1.45-4.5-1.65-9.51-3.66-13.7-2.5-5.22-2.31-11.22-5.8-16.17-1.91-2.71-2.23-6.54-3.24-9.88-1.33-4.36-2.63-8.74-3.99-13.09-1.89-6.09-3.85-12.16-5.73-18.26-1.62-5.28-3.06-10.61-4.79-15.86-1.6-4.87-3.55-9.62-5.2-14.48-1.12-3.3-1.98-6.68-2.98-10.03-1.58-5.29-3.07-10.6-4.78-15.84-1.59-4.86-3.49-9.62-5.1-14.48-1.5-4.52-2.79-9.11-4.2-13.67-1.75-5.66-3.18-11.45-5.39-16.92C-2.13,24.21.42,12.67,8.55,5.91,15.1.47,15.76.24,25.46.36ZM55.09,66.85c1.59,11.46,6.64,20.78,9.16,30.91,1.97,7.91,5.65,15.39,7.81,23.26,2.01,7.35,4.42,14.48,7.18,21.59,2.67,6.86,4.06,14.21,6.62,21.2,3.02,8.27,4.67,17.03,7.79,25.26,2.35,6.19,4.06,12.5,5.81,18.83,1.16,4.19,1.73,8.8,3.93,12.38,3.47,5.65,4.15,11.97,6.07,17.99,1.51,4.73,2.92,9.49,4.49,14.21,1.55,4.68,3.34,9.29,4.84,13.99,1.67,5.23,3.12,10.54,4.7,15.8,1,3.34,2,6.68,3.11,9.99,1.71,5.05,3.6,10.03,5.25,15.09,1.64,5.04,2.61,10.35,4.73,15.16,2.61,5.92,4,12.13,5.69,18.28,1.21,4.39,2.59,8.74,3.93,13.1,1.02,3.33,1.37,7.19,3.32,9.86,3.36,4.58,3.48,10.1,5.49,15.04,3.32,8.13,4.94,16.95,7.28,25.48.11.4.19.85.43,1.17,3.68,4.74,4.16,10.62,5.81,16.08,1.49,4.93,2.96,9.87,4.51,14.79,1.12,3.54,2.32,7.04,3.56,10.54,1.71,4.84,3.67,9.6,5.2,14.5,1.53,4.92,2.55,10,3.99,14.95,1.77,6.11,3.72,12.18,5.65,18.24.37,1.16,1.07,2.2,1.55,3.33.7,1.67,1.44,3.33,1.97,5.06.43,1.39.4,2.92.87,4.29,2.81,8.18,6.26,16.2,8.4,24.55,1.69,6.6,4.54,12.71,6.49,19.16,1.31,4.34,2.71,8.67,3.93,13.04,1.32,4.76,2.38,9.6,3.74,14.35,1.08,3.76,1.75,7.88,3.82,11.05,3.18,4.86,3.71,10.41,5.3,15.63,1.01,3.31,1.6,6.39,4.59,8.35,5.16-.04,7.7-4.35,11.32-6.79,6.59-4.44,13.36-8.76,19.29-13.99,5.34-4.7,11.34-8.34,16.95-12.56,7.33-5.52,14.89-10.75,22.02-16.51,3.15-2.54,5.87-5.54,9.8-6.95.54-.2.95-.76,1.44-1.13,10.97-8.32,21.92-16.69,32.93-24.96,8.1-6.08,16.27-12.06,24.44-18.05,8.82-6.47,17.95-12.57,26.44-19.45,7.53-6.09,15.71-11.27,23.03-17.7,7.58-6.65,16.52-11.74,24.74-17.69,6.74-4.89,13.29-10.05,19.93-15.07,6.12-4.62,12.19-9.3,18.4-13.8,9.69-7.01,19.52-13.84,29.18-20.89,1.2-.87,1.75-2.63,2.74-4.2-2.85-1.84-5.28-3.35-7.65-4.95-5.08-3.41-10.3-6.64-15.16-10.34-6.73-5.11-13.05-10.76-19.79-15.85-7.57-5.73-15.46-11.03-23.12-16.65-7.21-5.29-14.19-10.88-21.47-16.07-5.59-3.98-11.13-7.93-16.38-12.42-5.37-4.59-11.97-7.7-17.75-11.87-9.19-6.62-18.13-13.58-27.17-20.4-6.94-5.23-13.84-10.53-20.84-15.69-5.71-4.21-11.55-8.24-17.31-12.37-3.28-2.35-6.67-4.57-9.76-7.15-4.21-3.52-8.2-7.18-13.18-9.79-4.96-2.6-8.72-7-13.54-10.11-9.68-6.23-18.59-13.64-27.85-20.52-9.89-7.35-19.8-14.66-29.71-21.99-4.58-3.39-9.51-6.4-13.7-10.22-7.56-6.89-16.39-12.03-24.41-18.29-7.46-5.84-15.31-11.38-23.03-16.98-8.5-6.17-17-12.34-25.36-18.71-8.68-6.62-17.54-13-26.15-19.72-8.23-6.42-17.33-11.86-25.53-18.47-3.8-3.06-7.97-5.67-11.9-8.56-1.48-1.09-2.7-2.53-4.17-3.62-6.96-5.16-13.94-10.28-20.99-15.31-.82-.58-2.14-.45-3.7-.73ZM583.84,404.01c2.71,4.64,7.28,7.2,11.15,10.24,6.54,5.13,13.62,9.56,20.37,14.44,2.28,1.64,4.09,3.92,6.36,5.58,4.43,3.24,9.1,6.15,13.54,9.38,8.8,6.42,17.5,12.98,26.27,19.45,4.76,3.51,9.61,6.92,14.36,10.45,6.32,4.69,12.58,9.47,18.89,14.19,7.46,5.58,14.91,11.17,22.4,16.71,7.5,5.55,14.91,11.23,22.59,16.52,8,5.52,15.46,11.75,23.56,17.17,9.11,6.1,17.81,12.9,26.51,19.55,8.18,6.25,16.41,12.57,24.62,18.76,14.37,10.84,29.15,21.13,43.36,32.24,2.85,2.23,6.3,5.95,11.11,4.04,1.96-6.15,3.86-12.21,5.84-18.25,1.66-5.06,3.56-10.05,5.08-15.15,1.35-4.53,2.21-9.21,3.47-13.77,1.11-3.99,1.62-8.54,3.94-11.69,3.69-5,3.06-11.04,5.49-16.3,2.23-4.83,3.02-10.31,4.5-15.5.95-3.35,1.25-7.19,3.16-9.88,3.5-4.94,3.35-10.92,5.79-16.14,1.98-4.23,1.91-9.4,3.77-13.72,1.51-3.51,2.49-6.98,3.26-10.67.84-4.02,1.63-8.4,3.82-11.72,2.98-4.52,2.98-9.8,5.24-14.49,2.19-4.54,2.51-9.95,3.9-14.91,1.11-3.97,2.52-7.86,3.91-11.74,1.8-5.01,3.94-9.91,5.53-14.99,1.73-5.51,2.3-11.48,4.67-16.66,1.95-4.27,1.12-9.63,5.16-13.01.24-.2.11-.81.21-1.22,1.4-5.4,2.73-10.81,4.24-16.18,1-3.55,2.24-7.03,3.41-10.53,1.64-4.9,3.42-9.75,4.98-14.68,1.73-5.46,3.15-11.02,4.93-16.47,2.74-8.4,6.28-16.6,8.32-25.17,1.45-6.08,4.48-11.46,5.99-17.45,1.25-4.99,3.02-9.85,4.4-14.82,1.38-4.97,2.45-10.02,3.86-14.98,1.07-3.77,2.4-7.46,3.71-11.15,1.78-4.99,3.84-9.89,5.43-14.94,1.74-5.51,3.03-11.17,4.63-16.73.9-3.16,1.6-6.48,3.13-9.34,2.86-5.33,3.72-11.26,5.76-16.83,1.63-4.43,2.4-9.17,3.73-13.72,1.09-3.76,1.78-7.86,3.83-11.06,3.14-4.91,3.29-10.59,5.33-15.75,1.98-4.98,2.98-10.34,4.45-15.52.95-3.35,1.87-6.72,2.98-10.03,2.08-6.19,4.31-12.33,6.45-18.49,1.75-5.04,3.44-10.11,5.18-15.15.87-2.53,1.78-5.05-.3-7.58-152.09,112.56-303.93,224.94-456.25,337.66Z"/>
    <g>
      <path class="cls-1" d="M1336.41,569.09l-132.09-393.05c-1.72-6.01-2.58-10.31-2.58-12.89,0-6.87,2.36-12.24,7.09-16.11,4.72-3.87,11.38-5.8,19.97-5.8h39.95c17.61,0,29,8.6,34.15,25.77l61.21,208.77c14.18,47.26,24.05,85.92,29.64,115.98h3.22c7.3-34.36,17.82-73.02,31.57-115.98l63.79-208.77c5.16-17.18,16.53-25.77,34.15-25.77h33.51c8.59,0,15.35,1.93,20.3,5.8,4.93,3.87,7.41,9.24,7.41,16.11,0,2.58-.87,6.88-2.58,12.89l-137.25,393.7c-5.59,16.33-17.19,24.49-34.79,24.49h-42.53c-17.62,0-29-8.38-34.15-25.13Z"/>
      <path class="cls-1" d="M1646.34,205.04c-10.31-10.31-15.46-23.84-15.46-40.59,0-15.46,5.15-27.92,15.46-37.37,10.31-9.44,24.05-14.18,41.24-14.18s29.64,4.73,39.95,14.18c10.31,9.45,15.46,21.91,15.46,37.37,0,16.75-5.16,30.28-15.46,40.59s-23.63,15.46-39.95,15.46c-17.19,0-30.93-5.15-41.24-15.46ZM1650.21,586.49c-5.15-5.15-7.73-12.45-7.73-21.91v-262.89c0-9.44,2.58-16.75,7.73-21.91,5.16-5.15,12.46-7.73,21.91-7.73h30.93c9.44,0,16.75,2.58,21.91,7.73s7.73,12.46,7.73,21.91v262.89c0,9.45-2.58,16.75-7.73,21.91s-12.46,7.73-21.91,7.73h-30.93c-9.45,0-16.75-2.58-21.91-7.73Z"/>
      <path class="cls-1" d="M1858.97,571.03c-17.62-18.46-26.42-45.53-26.42-81.19v-155.93h-19.33c-8.17,0-14.61-2.36-19.33-7.09-4.73-4.72-7.09-11.17-7.09-19.33v-9.02c0-8.59,2.36-15.14,7.09-19.65,4.72-4.51,11.17-6.77,19.33-6.77h19.33v-54.13c0-18.04,8.59-29,25.77-32.86l31.57-7.09c4.29-.86,7.3-1.29,9.02-1.29,7.3,0,12.99,2.37,17.08,7.09,4.08,4.73,6.12,11.39,6.12,19.97v68.3h60.57c8.59,0,15.14,2.25,19.65,6.77,4.51,4.51,6.77,11.06,6.77,19.65v9.02c0,8.6-2.25,15.14-6.77,19.65-4.51,4.51-11.06,6.77-19.65,6.77h-60.57v150.78c0,14.18,2.9,24.92,8.7,32.22,5.8,7.31,14.07,10.95,24.81,10.95,7.73,0,15.03-2.14,21.91-6.44,5.15-3,8.8-4.51,10.95-4.51,4.72,0,8.8,3.65,12.24,10.95l7.73,18.69c3,6.88,4.51,12.24,4.51,16.11,0,7.31-3.87,13.32-11.6,18.04-18.04,12.03-39.3,18.04-63.79,18.04-34.79,0-61-9.23-78.61-27.71Z"/>
      <path class="cls-1" d="M2102.55,568.45l-71.52-263.54c-.87-4.29-1.29-7.3-1.29-9.02,0-7.3,2.47-13.1,7.41-17.4,4.93-4.29,11.7-6.44,20.3-6.44h32.22c18.46,0,29,7.95,31.57,23.84l26.42,110.18c4.72,24.06,9.23,51.98,13.53,83.77h2.58c4.72-28.77,10.31-56.7,16.75-83.77l27.71-108.25c3.87-17.18,14.82-25.77,32.86-25.77h31.57c18.04,0,28.77,7.95,32.22,23.84l27.06,110.18c7.73,34.37,12.89,62.29,15.46,83.77h2.58c5.16-33.93,10.31-61.86,15.46-83.77l27.06-107.61c3.87-17.61,14.82-26.42,32.86-26.42h30.29c8.59,0,15.24,1.93,19.97,5.8,4.72,3.87,7.09,9.45,7.09,16.75,0,4.3-.43,7.73-1.29,10.31l-77.97,264.18c-4.73,16.75-15.69,25.13-32.86,25.13h-41.88c-17.62,0-28.14-7.09-31.57-21.26l-25.77-104.38c-7.31-33.93-12.67-62.92-16.11-86.99h-2.58c-2.15,22.34-7.95,51.34-17.4,86.99l-27.06,99.87c-3.87,17.19-14.82,25.77-32.86,25.77h-39.95c-18.04,0-29-8.59-32.86-25.77Z"/>
      <path class="cls-1" d="M2545.21,205.04c-10.31-10.31-15.46-23.84-15.46-40.59,0-15.46,5.16-27.92,15.46-37.37,10.31-9.44,24.05-14.18,41.24-14.18s29.64,4.73,39.95,14.18c10.31,9.45,15.46,21.91,15.46,37.37,0,16.75-5.15,30.28-15.46,40.59-10.31,10.31-23.63,15.46-39.95,15.46-17.19,0-30.93-5.15-41.24-15.46ZM2549.08,586.49c-5.16-5.15-7.73-12.45-7.73-21.91v-262.89c0-9.44,2.58-16.75,7.73-21.91s12.45-7.73,21.91-7.73h30.93c9.44,0,16.75,2.58,21.91,7.73,5.15,5.15,7.73,12.46,7.73,21.91v262.89c0,9.45-2.58,16.75-7.73,21.91-5.16,5.15-12.46,7.73-21.91,7.73h-30.93c-9.45,0-16.75-2.58-21.91-7.73Z"/>
      <path class="cls-1" d="M2757.84,571.03c-17.62-18.46-26.42-45.53-26.42-81.19v-155.93h-19.33c-8.17,0-14.61-2.36-19.33-7.09-4.73-4.72-7.09-11.17-7.09-19.33v-9.02c0-8.59,2.36-15.14,7.09-19.65,4.72-4.51,11.17-6.77,19.33-6.77h19.33v-54.13c0-18.04,8.59-29,25.77-32.86l31.57-7.09c4.29-.86,7.3-1.29,9.02-1.29,7.3,0,12.99,2.37,17.08,7.09,4.08,4.73,6.12,11.39,6.12,19.97v68.3h60.57c8.59,0,15.14,2.25,19.65,6.77,4.51,4.51,6.77,11.06,6.77,19.65v9.02c0,8.6-2.25,15.14-6.77,19.65-4.51,4.51-11.06,6.77-19.65,6.77h-60.57v150.78c0,14.18,2.9,24.92,8.7,32.22,5.8,7.31,14.06,10.95,24.81,10.95,7.73,0,15.03-2.14,21.91-6.44,5.15-3,8.8-4.51,10.95-4.51,4.72,0,8.8,3.65,12.24,10.95l7.73,18.69c3,6.88,4.51,12.24,4.51,16.11,0,7.31-3.87,13.32-11.6,18.04-18.04,12.03-39.31,18.04-63.79,18.04-34.79,0-61-9.23-78.61-27.71Z"/>
    </g>
  </g>
</svg>