<svg width="32" height="33" viewBox="0 0 32 33" fill="none" xmlns="http://www.w3.org/2000/svg">
<g id="apartment_FILL0_wght200_GRAD0_opsz24 1">
<path id="Vector" d="M4.66589 27.0688V9.73549H9.99923V4.40216H21.9992V15.0688H27.3326V27.0688H17.9992V21.7355H13.9992V27.0688H4.66589ZM5.99923 25.7355H9.99923V21.7355H5.99923V25.7355ZM5.99923 20.4022H9.99923V16.4022H5.99923V20.4022ZM5.99923 15.0688H9.99923V11.0688H5.99923V15.0688ZM11.3326 20.4022H15.3326V16.4022H11.3326V20.4022ZM11.3326 15.0688H15.3326V11.0688H11.3326V15.0688ZM11.3326 9.73549H15.3326V5.73549H11.3326V9.73549ZM16.6659 20.4022H20.6659V16.4022H16.6659V20.4022ZM16.6659 15.0688H20.6659V11.0688H16.6659V15.0688ZM16.6659 9.73549H20.6659V5.73549H16.6659V9.73549ZM21.9992 25.7355H25.9992V21.7355H21.9992V25.7355ZM21.9992 20.4022H25.9992V16.4022H21.9992V20.4022Z" fill="white"/>
</g>
</svg>
