<svg width="32" height="28" viewBox="0 0 32 28" fill="none" xmlns="http://www.w3.org/2000/svg">
<g id="Group">
<g id="Group_2">
<g id="Group_3">
<g id="Group_4">
<g id="Group_5">
<path id="Vector" fill-rule="evenodd" clip-rule="evenodd" d="M5.64352 26.5179C5.47479 26.5179 5.28732 26.4211 5.23107 26.1888C5.15608 25.9566 5.24982 25.6856 5.51229 25.6082C8.7556 24.4274 10.4616 24.7371 12.2801 25.1243C15.261 25.7049 18.6168 26.3824 30.3714 19.3368C30.7651 19.1045 31.0089 18.7755 31.0838 18.4077C31.1588 18.0593 31.0838 17.6528 30.8964 17.3238C30.7089 16.9753 30.4089 16.7431 30.0902 16.6269C29.734 16.4914 29.3403 16.5495 28.9466 16.7818C28.1405 17.2657 27.4093 17.7302 26.6782 18.1948C21.4289 21.4466 18.2418 23.4209 10.8553 19.6852C10.6303 19.5884 10.5366 19.2981 10.6491 19.0852C10.7428 18.8335 11.0428 18.7561 11.249 18.8529C13.9486 20.2078 16.0109 20.7691 17.8294 20.7691H17.8669C17.9044 20.7498 17.9606 20.7498 17.9794 20.7498H18.0169C18.5043 20.7498 18.8042 20.3046 18.8792 19.9175C18.898 19.7239 18.9542 19.1045 18.2418 18.8529L13.0675 17.1496C10.7241 16.356 9.52425 16.956 7.57451 17.9432C7.04958 18.1948 6.48715 18.4851 5.83099 18.7755C5.60602 18.8916 5.34356 18.7755 5.23107 18.5432C5.13734 18.2916 5.23107 18.0206 5.47479 17.9238C6.09346 17.6528 6.63713 17.3818 7.16206 17.1108C9.18679 16.1237 10.6491 15.3688 13.33 16.2592L18.5043 17.9819C19.5541 18.3303 19.8916 19.2594 19.7604 20.0723C19.7416 20.2272 19.6854 20.4207 19.6104 20.5756C21.7289 20.1304 23.6973 18.911 26.1908 17.3625C26.9219 16.8979 27.6531 16.4334 28.4592 15.9495C29.0779 15.5817 29.734 15.5043 30.3527 15.7172C30.8964 15.9108 31.3651 16.2979 31.6463 16.8399C31.965 17.3818 32.0775 18.0012 31.9462 18.6013C31.815 19.2594 31.4213 19.8013 30.8026 20.1691C18.7105 27.3889 15.186 26.6727 12.0552 26.0727C10.3679 25.7049 8.7556 25.4146 5.756 26.5179C5.756 26.5179 5.69976 26.5179 5.64352 26.5179Z" fill="white"/>
</g>
<g id="Group_6">
<path id="Vector_2" fill-rule="evenodd" clip-rule="evenodd" d="M4.91184 27.2729H1.19984C0.524929 27.2729 0 26.7116 0 26.0341V18.3691C0 17.6723 0.543677 17.1497 1.19984 17.1497H4.91184C5.568 17.1497 6.11168 17.711 6.11168 18.3691V26.0147C6.09293 26.7116 5.568 27.2729 4.91184 27.2729ZM1.19984 18.0788C1.04986 18.0788 0.918626 18.2142 0.918626 18.3691V26.0147C0.918626 26.1696 1.04986 26.3051 1.19984 26.3051H4.91184C5.08057 26.3051 5.2118 26.1696 5.2118 26.0147V18.3691C5.2118 18.2142 5.08057 18.0788 4.91184 18.0788H1.19984Z" fill="white"/>
</g>
<g id="Group_7">
<path id="Vector_3" fill-rule="evenodd" clip-rule="evenodd" d="M3.07442 21.8918C2.28702 21.8918 1.63086 21.2337 1.63086 20.4208C1.63086 19.6078 2.28702 18.9497 3.07442 18.9497C3.86181 18.9497 4.49922 19.6078 4.49922 20.4208C4.49922 21.2337 3.86181 21.8918 3.07442 21.8918ZM3.07442 19.8788C2.7932 19.8788 2.54949 20.1304 2.54949 20.4208C2.54949 20.7111 2.7932 20.9627 3.07442 20.9627C3.35563 20.9627 3.59934 20.7111 3.59934 20.4208C3.59934 20.1304 3.35563 19.8788 3.07442 19.8788Z" fill="white"/>
</g>
</g>
<g id="Group_8">
<path id="Vector_4" fill-rule="evenodd" clip-rule="evenodd" d="M12.3742 13.7622C12.2617 13.7622 12.1493 13.7235 12.0555 13.646C11.9243 13.5105 11.868 13.317 11.9243 13.1428L12.5992 11.1104L11.4368 11.1298C10.3682 11.1298 9.50586 10.2394 9.50586 9.13607V1.97432C9.50586 0.871024 10.3682 0 11.4368 0H24.3164C25.385 0 26.2474 0.871024 26.2474 1.97432V9.15543C26.2474 10.2587 25.385 11.1491 24.3164 11.1491H17.4923L12.5804 13.7235C12.4867 13.7622 12.4117 13.7622 12.3742 13.7622ZM11.4368 0.929092C10.8557 0.929092 10.4057 1.39364 10.4057 1.97432V9.15543C10.4057 9.71676 10.8744 10.2007 11.4368 10.2007H13.2179C13.3866 10.2007 13.5178 10.2781 13.5928 10.3942C13.6678 10.5297 13.6865 10.6846 13.6491 10.8201L13.1241 12.3492L17.1361 10.2587C17.1736 10.2394 17.2673 10.2007 17.3423 10.2007H24.2976C24.8413 10.2007 25.31 9.75547 25.31 9.15543V1.97432C25.31 1.41299 24.86 0.929092 24.2976 0.929092H11.4368Z" fill="white"/>
</g>
<g id="Group_9">
<g id="Group_10">
<path id="Vector_5" fill-rule="evenodd" clip-rule="evenodd" d="M14.0202 5.9036H13.4765C13.214 5.9036 13.0078 5.69068 13.0078 5.41969C13.0078 5.14871 13.214 4.93579 13.4765 4.93579H14.0202C14.2826 4.93579 14.4889 5.14871 14.4889 5.41969C14.4889 5.69068 14.2826 5.9036 14.0202 5.9036Z" fill="white"/>
</g>
<g id="Group_11">
<path id="Vector_6" fill-rule="evenodd" clip-rule="evenodd" d="M18.1452 5.9036H17.6015C17.339 5.9036 17.1328 5.69068 17.1328 5.41969C17.1328 5.14871 17.339 4.93579 17.6015 4.93579H18.1452C18.4076 4.93579 18.6139 5.14871 18.6139 5.41969C18.6139 5.69068 18.4076 5.9036 18.1452 5.9036Z" fill="white"/>
</g>
<g id="Group_12">
<path id="Vector_7" fill-rule="evenodd" clip-rule="evenodd" d="M22.2526 5.9036H21.7089C21.4465 5.9036 21.2402 5.69068 21.2402 5.41969C21.2402 5.14871 21.4465 4.93579 21.7089 4.93579H22.2526C22.5151 4.93579 22.7213 5.14871 22.7213 5.41969C22.7213 5.69068 22.5151 5.9036 22.2526 5.9036Z" fill="white"/>
</g>
</g>
</g>
</g>
</g>
</svg>
