<svg width="40" height="40" viewBox="0 0 40 40" fill="none" xmlns="http://www.w3.org/2000/svg">
<g id="rocket_launch_FILL0_wght200_GRAD0_opsz24 1">
<path id="Vector" d="M8.64718 18.6955L12.7305 20.4231C13.2476 19.3889 13.8106 18.3878 14.4196 17.4198C15.0286 16.4519 15.7006 15.5107 16.4356 14.5961L13.8779 14.1057C13.707 14.063 13.5414 14.0683 13.3811 14.1218C13.2209 14.1752 13.0767 14.266 12.9484 14.3942L8.64718 18.6955ZM14.051 21.4807L18.769 26.1891C20.0852 25.5951 21.41 24.8397 22.7433 23.9231C24.0766 23.0064 25.3587 21.9327 26.5895 20.7019C28.3843 18.907 29.7556 16.993 30.7033 14.9599C31.6509 12.9268 32.1835 10.579 32.301 7.91664C29.6386 8.03417 27.2946 8.56675 25.269 9.51439C23.2433 10.462 21.3331 11.8333 19.5382 13.6282C18.3074 14.8589 17.2337 16.1463 16.3171 17.4903C15.4004 18.8344 14.645 20.1645 14.051 21.4807ZM22.6856 17.5224C22.1963 17.0331 21.9516 16.446 21.9516 15.7612C21.9516 15.0763 22.1963 14.4893 22.6856 14C23.1749 13.5106 23.769 13.266 24.4677 13.266C25.1664 13.266 25.7604 13.5106 26.2497 14C26.7391 14.4893 26.9837 15.0763 26.9837 15.7612C26.9837 16.446 26.7391 17.0331 26.2497 17.5224C25.7604 18.0117 25.1664 18.2564 24.4677 18.2564C23.769 18.2564 23.1749 18.0117 22.6856 17.5224ZM21.5222 31.6025L25.8234 27.3013C25.9516 27.173 26.0425 27.0288 26.0959 26.8686C26.1493 26.7083 26.1546 26.5427 26.1119 26.3718L25.6215 23.8141C24.707 24.5491 23.7657 25.2195 22.7978 25.8253C21.8299 26.4311 20.8288 26.9925 19.7946 27.5096L21.5222 31.6025ZM33.8587 6.38135C34.0446 9.44332 33.6114 12.2601 32.5591 14.8317C31.5067 17.4033 29.8673 19.8023 27.6408 22.0288L27.3523 22.3173L27.0638 22.6057L27.7369 26.0256C27.8267 26.4743 27.8096 26.9092 27.6856 27.3301C27.5617 27.751 27.3373 28.1239 27.0126 28.4487L20.9421 34.4872L18.1792 27.9776L12.2401 22.0384L5.73047 19.2436L11.7593 13.2051C12.0841 12.8803 12.4586 12.6506 12.8827 12.516C13.3069 12.3814 13.7433 12.3589 14.192 12.4487L17.676 13.1538C17.7828 13.047 17.8737 12.9508 17.9484 12.8653C18.0232 12.7799 18.114 12.6837 18.2209 12.5769C20.4474 10.3504 22.8448 8.71469 25.4132 7.66981C27.9816 6.62494 30.7967 6.19546 33.8587 6.38135ZM8.52855 26.9455C9.18027 26.2938 9.97248 25.9717 10.9052 25.9791C11.8379 25.9866 12.6301 26.3162 13.2818 26.9679C13.9335 27.6196 14.2577 28.4118 14.2546 29.3445C14.2513 30.2772 13.9239 31.0694 13.2722 31.7211C12.7059 32.2874 11.7973 32.7724 10.5462 33.1763C9.29512 33.5801 7.84801 33.859 6.20484 34.0128C6.35868 32.3696 6.64286 30.9225 7.05739 29.6714C7.47191 28.4204 7.9623 27.5117 8.52855 26.9455ZM9.71768 28.157C9.39715 28.4775 9.098 29.0005 8.82022 29.7259C8.54244 30.4514 8.35868 31.1998 8.26893 31.9711C9.04032 31.8814 9.78872 31.6939 10.5141 31.4086C11.2396 31.1234 11.7625 30.8205 12.0831 30.5C12.4164 30.1666 12.5863 29.7692 12.5927 29.3077C12.5991 28.8461 12.4356 28.4487 12.1023 28.1153C11.7689 27.782 11.3715 27.6223 10.91 27.6362C10.4484 27.6501 10.051 27.8237 9.71768 28.157Z" fill="white"/>
</g>
</svg>
