<svg width="40" height="40" viewBox="0 0 40 40" fill="none" xmlns="http://www.w3.org/2000/svg">
<g id="person_FILL0_wght200_GRAD0_opsz24 1">
<path id="Vector" d="M20.0007 18.9744C18.6257 18.9744 17.4486 18.4848 16.4694 17.5057C15.4902 16.5265 15.0007 15.3494 15.0007 13.9744C15.0007 12.5994 15.4902 11.4223 16.4694 10.4431C17.4486 9.46395 18.6257 8.97437 20.0007 8.97437C21.3757 8.97437 22.5527 9.46395 23.5319 10.4431C24.5111 11.4223 25.0007 12.5994 25.0007 13.9744C25.0007 15.3494 24.5111 16.5265 23.5319 17.5057C22.5527 18.4848 21.3757 18.9744 20.0007 18.9744ZM8.33398 31.0257V28.2821C8.33398 27.594 8.5343 26.9504 8.93494 26.351C9.33558 25.7516 9.87458 25.2864 10.5519 24.9552C12.1246 24.2009 13.6983 23.6352 15.2731 23.258C16.8479 22.8809 18.4237 22.6923 20.0007 22.6923C21.5776 22.6923 23.1534 22.8809 24.7282 23.258C26.303 23.6352 27.8767 24.2009 29.4494 24.9552C30.1267 25.2864 30.6657 25.7516 31.0664 26.351C31.467 26.9504 31.6673 27.594 31.6673 28.2821V31.0257H8.33398ZM10.0007 29.359H30.0007V28.2821C30.0007 27.9124 29.8815 27.5652 29.6433 27.2404C29.405 26.9156 29.0754 26.6411 28.6545 26.4167C27.2827 25.7522 25.8683 25.2431 24.4113 24.8895C22.9543 24.5358 21.4841 24.359 20.0007 24.359C18.5172 24.359 17.047 24.5358 15.59 24.8895C14.133 25.2431 12.7186 25.7522 11.3468 26.4167C10.9259 26.6411 10.5963 26.9156 10.358 27.2404C10.1198 27.5652 10.0007 27.9124 10.0007 28.2821V29.359ZM20.0007 17.3077C20.9173 17.3077 21.702 16.9814 22.3548 16.3286C23.0076 15.6758 23.334 14.8911 23.334 13.9744C23.334 13.0577 23.0076 12.273 22.3548 11.6202C21.702 10.9675 20.9173 10.6411 20.0007 10.6411C19.084 10.6411 18.2993 10.9675 17.6465 11.6202C16.9937 12.273 16.6673 13.0577 16.6673 13.9744C16.6673 14.8911 16.9937 15.6758 17.6465 16.3286C18.2993 16.9814 19.084 17.3077 20.0007 17.3077Z" fill="white"/>
</g>
</svg>
